<?xml version="1.0" standalone="no"?>
<!DOCTYPE svg PUBLIC "-//W3C//DTD SVG 20010904//EN"
 "http://www.w3.org/TR/2001/REC-SVG-20010904/DTD/svg10.dtd">
<svg version="1.0" xmlns="http://www.w3.org/2000/svg"
 width="700.000000pt" height="700.000000pt" viewBox="0 0 700.000000 700.000000"
 preserveAspectRatio="xMidYMid meet">
<metadata>
Created by potrace 1.14, written by Peter Selinger 2001-2017
</metadata>
<g transform="translate(0.000000,700.000000) scale(0.100000,-0.100000)"
fill="#000000" stroke="none">
<path d="M3465 6508 c-109 -95 -287 -290 -386 -423 -55 -73 -129 -183 -129
-190 0 -3 -15 -29 -33 -58 -42 -68 -80 -147 -74 -153 3 -3 18 1 34 9 31 16
175 65 214 72 13 3 56 12 94 20 39 8 97 17 130 20 82 6 374 6 405 0 14 -3 45
-8 70 -11 64 -8 141 -28 245 -65 109 -37 125 -41 125 -27 0 41 -262 432 -368
548 -53 58 -182 189 -249 253 l-40 39 -38 -34z"/>
<path d="M3487 5604 c-1 -1 -49 -4 -107 -8 -123 -7 -148 -11 -255 -37 -164
-41 -389 -142 -436 -195 -52 -59 -153 -411 -184 -639 -3 -22 -7 -49 -10 -60
-21 -103 -21 -515 0 -665 2 -14 6 -45 9 -70 13 -100 18 -128 32 -200 85 -434
255 -851 526 -1288 39 -61 72 -112 75 -112 3 0 -4 15 -15 33 -112 183 -180
319 -267 537 -69 172 -148 412 -169 515 -4 17 -13 61 -21 98 -38 179 -38 208
-2 225 34 16 34 16 42 -28 3 -19 10 -51 15 -70 5 -19 12 -51 15 -70 17 -103
88 -357 141 -505 74 -205 232 -538 346 -728 33 -55 58 -100 56 -102 -2 -1 -13
-8 -26 -14 l-23 -12 37 -42 c21 -23 80 -88 132 -144 107 -116 101 -115 179
-35 73 76 204 227 263 302 19 25 37 47 40 50 4 3 45 64 92 135 211 319 344
625 449 1032 21 83 41 164 43 180 24 135 46 283 53 354 10 107 10 524 0 609
-7 54 -39 227 -53 280 -30 119 -54 199 -84 280 -17 47 -38 103 -46 126 -14 39
-21 44 -142 102 -267 128 -370 154 -650 165 -30 1 -54 2 -55 1z m143 -424
c190 -49 349 -205 389 -380 24 -106 5 -261 -46 -367 -39 -81 -160 -202 -244
-241 -134 -64 -326 -60 -469 9 -82 41 -194 151 -233 231 -106 216 -43 504 142
649 131 103 305 140 461 99z"/>
<path d="M4636 3549 c-45 -191 -71 -287 -118 -424 -61 -181 -123 -320 -248
-551 -15 -28 -25 -56 -21 -61 3 -5 33 -29 66 -53 123 -89 323 -317 405 -462
72 -126 140 -296 155 -387 3 -19 8 -37 10 -41 16 -26 24 -282 11 -364 -7 -42
-6 -47 6 -35 17 16 106 167 143 240 56 110 137 340 159 449 34 172 37 202 37
355 -1 227 -12 317 -57 475 -90 317 -265 612 -493 834 -48 48 -50 48 -55 25z"/>
<path d="M2265 3478 c-171 -177 -297 -374 -389 -615 -34 -86 -82 -260 -91
-321 -2 -15 -6 -49 -10 -77 -3 -27 -8 -65 -11 -84 -7 -53 -7 -228 0 -306 15
-155 55 -319 123 -500 47 -126 188 -394 200 -381 3 3 7 65 9 138 2 73 8 163
14 199 27 181 124 408 246 579 66 93 245 281 353 371 l53 45 -42 75 c-75 135
-159 315 -209 450 -48 131 -125 396 -138 472 -3 20 -11 37 -17 37 -6 0 -47
-37 -91 -82z"/>
<path d="M2966 1948 c4 -503 8 -725 16 -792 7 -69 57 -280 64 -273 2 2 6 48 9
103 8 152 16 204 46 299 21 69 54 130 94 175 21 24 22 32 21 226 l-1 201 -58
62 c-31 34 -87 98 -123 141 -36 44 -67 80 -68 80 -1 0 -1 -100 0 -222z"/>
<path d="M3972 2098 c-33 -40 -87 -104 -121 -142 l-61 -69 0 -207 c0 -177 2
-209 16 -221 43 -36 97 -144 110 -219 2 -14 6 -35 9 -46 8 -38 17 -156 18
-241 1 -46 4 -83 8 -83 9 0 47 137 59 215 5 39 13 88 16 110 6 41 16 975 10
975 -2 0 -30 -33 -64 -72z"/>
<path d="M2738 2062 c-94 -147 -130 -281 -131 -486 0 -72 3 -147 6 -166 16
-91 27 -140 45 -195 l20 -60 7 40 c18 106 48 213 67 245 20 33 21 49 24 358 1
177 2 322 1 322 -1 0 -19 -26 -39 -58z"/>
<path d="M4224 2092 c3 -4 6 -137 7 -295 l2 -286 34 -103 c19 -57 37 -133 40
-170 3 -38 10 -68 14 -68 8 0 39 96 55 170 49 222 31 425 -53 610 -26 57 -85
150 -95 150 -5 0 -7 -4 -4 -8z"/>
<path d="M3359 1695 c-3 -2 -4 -26 -3 -52 1 -26 5 -154 9 -283 3 -129 8 -248
9 -265 10 -95 17 -152 21 -170 2 -11 7 -38 10 -60 3 -22 7 -47 10 -55 2 -8 6
-33 10 -54 7 -51 63 -275 72 -289 3 -6 10 0 15 14 13 32 76 318 84 377 3 26 8
50 10 53 19 32 50 789 33 789 -4 0 -36 -32 -72 -71 l-66 -72 -69 72 c-38 39
-71 69 -73 66z"/>
</g>
</svg>
