<svg width="1366" height="1366" viewBox="0 0 1366 1366" fill="none" xmlns="http://www.w3.org/2000/svg">
<path d="M663.773 107.272C635.315 134.356 606.465 168.702 584.876 201.085C573.689 217.767 553.082 254.468 553.082 257.609C553.082 258.197 556.418 257.216 560.54 255.057C571.138 249.758 596.848 241.908 620.203 237.001C634.923 233.861 650.231 232.487 676.138 231.898C725.007 230.524 752.876 234.842 793.11 249.954C802.923 253.683 811.363 256.235 811.951 255.646C815.484 252.113 773.091 186.169 746.792 154.178C732.073 136.122 685.755 89.8043 682.811 90.0006C682.222 90.0006 673.587 97.8511 663.773 107.272Z" fill="#aaffff"/>
<path d="M636.493 275.665C588.605 283.123 529.923 307.459 521.876 323.356C510.885 344.553 497.147 392.637 490.278 433.46C474.773 526.095 485.175 630.311 519.913 731.189C536.595 779.077 567.212 842.274 594.689 884.863C600.577 894.087 607.25 904.685 609.605 908.414C611.96 912.143 613.923 914.695 613.923 913.909C613.923 913.321 607.054 901.349 598.811 887.414C564.268 829.713 528.941 734.918 517.754 669.367C512.455 639.535 512.651 638.946 520.109 636.002C523.446 634.825 526.39 633.843 526.586 634.236C526.782 634.432 529.334 647.189 532.278 662.694C538.558 696.647 551.119 740.806 564.857 777.9C579.969 818.722 617.063 894.087 635.904 921.76L641.596 930.199L635.708 932.162L629.624 934.321L639.437 945.508C644.736 951.592 656.512 964.349 665.54 974.162L682.026 991.629L689.287 986.33C698.512 979.265 734.428 938.639 752.484 915.283C809.204 840.9 846.493 758.077 868.867 656.806C884.765 585.17 888.69 509.609 879.662 446.217C875.148 415.6 863.176 369.871 851.989 341.216L842.372 316.684L819.017 304.908C790.951 290.777 758.764 279.59 734.82 275.468C713.035 271.739 660.829 271.936 636.493 275.665ZM705.185 353.973C743.848 362.216 776.035 392.833 784.475 429.534C788.4 446.217 787.026 469.572 781.531 486.058C775.054 505.488 767.792 516.871 752.288 531.198C732.465 549.843 713.428 557.105 684.577 557.105C654.549 557.105 629.624 547.292 609.998 527.469C589.782 507.45 580.362 484.88 580.362 456.422C580.362 405.198 612.353 364.768 661.222 353.973C677.708 350.441 688.502 350.441 705.185 353.973Z" fill="#aaffff"/>
<path d="M442.782 686.245C359.567 770.442 324.043 898.797 352.894 1010.67C358.389 1031.86 367.81 1059.34 375.857 1077.79C382.726 1093.49 402.352 1129.01 406.67 1133.53C408.436 1135.49 408.829 1128.82 409.025 1106.05C409.221 1062.48 416.287 1032.45 435.52 993.984C450.044 965.526 466.726 941.779 490.081 917.835C505.586 901.545 530.904 878.975 538.95 873.872C539.343 873.479 533.455 862.489 525.801 849.143C509.707 821.077 495.577 788.694 483.408 752.582C474.184 724.909 462.801 682.516 462.801 675.451C462.801 673.096 462.016 670.74 461.231 670.152C460.249 669.563 452.006 676.825 442.782 686.245Z" fill="#aaffff"/>
<path d="M904.391 672.703C904.391 679.376 891.045 729.423 882.017 756.311C871.223 788.694 859.054 816.367 841.587 848.358C833.933 862.096 827.849 874.068 827.849 874.853C827.849 875.442 832.559 879.171 838.054 882.9C864.55 900.76 899.877 940.405 921.269 976.125C949.531 1023.42 962.485 1081.52 955.615 1129.6C954.83 1135.29 954.438 1140 954.83 1140C956.989 1140 977.204 1106.05 986.821 1086.03C1000.17 1058.16 1010.18 1028.13 1017.63 993.396C1022.34 970.825 1022.93 964.349 1022.93 930.003C1022.74 887.022 1020.19 868.965 1009.39 833.049C993.298 779.862 964.84 730.404 927.55 690.956C916.559 679.376 906.942 669.563 905.961 669.367C905.176 668.974 904.391 670.544 904.391 672.703Z" fill="#aaffff"/>
<path d="M579.184 1039.12C580.166 1143.34 580.558 1148.84 590.764 1182.59L595.278 1197.9L596.456 1169.44C598.026 1137.65 602.343 1117.24 611.96 1097.41C615.297 1090.74 620.203 1083.48 622.755 1081.32L627.661 1077.59V1037.95V998.106L614.904 984.564C607.839 977.106 596.652 964.349 590.175 956.106L578.399 941.19L579.184 1039.12Z" fill="#aaffff"/>
<path d="M779.372 951.788C775.054 957.676 764.259 970.237 755.428 980.05L739.53 997.713V1037.75V1077.79L747.185 1086.03C761.315 1101.34 769.362 1133.92 769.558 1176.31V1201.83L774.072 1189.85C785.652 1158.84 788.988 1114.88 788.203 1009.69L787.615 941.19L779.372 951.788Z" fill="#aaffff"/>
<path d="M536.007 961.012C517.362 988.489 509.904 1013.02 508.53 1050.7C507.352 1080.14 509.904 1099.97 518.147 1127.25L522.465 1140.98L524.035 1131.17C528.352 1106.44 531.885 1093.49 536.399 1085.84L541.306 1077.59L541.698 1014.59C542.091 979.854 542.287 951.592 542.287 951.592C542.287 951.592 539.539 955.713 536.007 961.012Z" fill="#aaffff"/>
<path d="M825.493 1014.98C825.886 1075.43 826.082 1076.02 830.792 1086.03C836.484 1097.41 841.587 1119.2 841.587 1132.15C841.587 1143.54 844.138 1140.59 849.241 1123.32C867.297 1061.69 860.821 1007.13 830.4 962.19L824.905 953.947L825.493 1014.98Z" fill="#aaffff"/>
<path d="M655.923 1085.05C656.512 1113.7 657.886 1146.68 659.063 1158.65C663.97 1205.95 681.437 1285.04 684.774 1275.82C687.914 1267.57 702.045 1201.43 705.185 1180.24C708.325 1160.41 712.839 1036.77 710.484 1034.02C710.091 1033.43 703.811 1039.52 696.353 1047.56L683.203 1062.09L669.073 1047.56L654.942 1033.04L655.923 1085.05Z" fill="#aaffff"/>
</svg>
